# xmcd CD database file
#
# Track frame offsets:
#	150
#	34418
#	85537
#	115571
#	158058
#	194311
#	227455
#	270665
#
# Disc length: 4049 seconds
#
# Revision: 0
# Processed by: cddbd v1.5.2PL0 Copyright (c) Steve Scherf et al.
# Submitted via: CDex 1.70beta2
#
DISCID=560fcf08
DTITLE=Reeds and Deeds(Eric Alexander and Grant Stewart) - Cookin'
DYEAR=2006
DGENRE=Jazz
TTITLE0=She
TTITLE1=So In Love
TTITLE2=Never Let Me Go
TTITLE3=Black Orpheus
TTITLE4=Hittin' The Jug
TTITLE5=Trouble Is A Man
TTITLE6=Who Can I Turn To
TTITLE7=Passport
EXTD=YEAR: 2006
EXTT0=
EXTT1=
EXTT2=
EXTT3=
EXTT4=
EXTT5=
EXTT6=
EXTT7=
PLAYORDER=
